<svg xmlns="http://www.w3.org/2000/svg" xmlns:xlink="http://www.w3.org/1999/xlink" version="1.1" width="64px" height="64px" viewBox="0 0 100 125" fill="#000" xml:space="preserve"><g><g><path stroke="#fff" stroke-width="3" stroke-linecap="round" d="M24.3,25.3c-0.6,0-1.2-0.5-1.2-1.2C23.2,16,29.8,9.3,38,9.3c0.6,0,1.2,0.5,1.2,1.2c0,0.6-0.5,1.2-1.2,1.2    c-6.9,0-12.5,5.6-12.5,12.5C25.5,24.8,24.9,25.3,24.3,25.3z"/></g><g><path  stroke="#fff" stroke-width="3" stroke-linecap="round" d="M44.1,60.6H16.5C7.4,60.6,0,53.2,0,44.1C0,35.2,7,28,15.7,27.6c-0.2-1.1-0.3-2.3-0.3-3.4    C15.4,11.7,25.6,1.6,38,1.6c9.6,0,17.9,5.9,21.2,14.8c2.1-0.6,4.3-0.9,6.5-0.9c12.4,0,22.6,10.1,22.6,22.6c0,6.1-2.4,11.8-6.7,16    c-0.5,0.4-1.2,0.4-1.6,0c-0.4-0.5-0.4-1.2,0-1.6c3.9-3.8,6-8.9,6-14.4c0-11.2-9.1-20.3-20.3-20.3c-2.3,0-4.6,0.4-6.8,1.2    C58.6,19,58.2,19,58,18.9c-0.3-0.1-0.5-0.4-0.6-0.7C54.7,9.6,47,3.9,38,3.9c-11.2,0-20.3,9.1-20.3,20.3c0,1.4,0.2,2.9,0.5,4.3    c0.1,0.3,0,0.7-0.2,1c-0.2,0.3-0.6,0.4-0.9,0.4c-0.1,0-0.2,0-0.3,0c-0.1,0-0.2,0-0.3,0c-7.8,0-14.2,6.4-14.2,14.2    c0,7.8,6.4,14.2,14.2,14.2h27.6c0.6,0,1.2,0.5,1.2,1.2C45.3,60.1,44.8,60.6,44.1,60.6z"/></g><g><g><g><path stroke="#fff" stroke-width="3" stroke-linecap="round" d="M71.5,82.4c-5.3,0-9.6-4.3-9.6-9.6c0-5.3,4.3-9.6,9.6-9.6s9.6,4.3,9.6,9.6      C81,78.1,76.8,82.4,71.5,82.4z M71.5,65.6c-4,0-7.2,3.2-7.2,7.2c0,4,3.2,7.2,7.2,7.2s7.2-3.2,7.2-7.2      C78.7,68.9,75.5,65.6,71.5,65.6z"/></g><g><path stroke="#fff" stroke-width="3" stroke-linecap="round" d="M58.6,82.7c-0.4,0-0.7-0.2-1-0.5c-1.9-2.8-2.9-6-2.9-9.4c0-3.4,1-6.6,2.9-9.4c0.4-0.5,1.1-0.7,1.6-0.3      c0.5,0.4,0.7,1.1,0.3,1.6c-1.6,2.4-2.5,5.2-2.5,8.1c0,2.9,0.9,5.7,2.5,8.1c0.4,0.5,0.2,1.2-0.3,1.6C59,82.7,58.8,82.7,58.6,82.7      z"/></g><g><path stroke="#fff" stroke-width="3" stroke-linecap="round" d="M84.6,82.4c-0.2,0-0.4-0.1-0.6-0.2c-0.5-0.3-0.7-1.1-0.3-1.6c1.5-2.3,2.3-5,2.3-7.8      c0-2.8-0.8-5.5-2.3-7.8c-0.3-0.5-0.2-1.3,0.3-1.6c0.5-0.3,1.3-0.2,1.6,0.3c1.7,2.7,2.6,5.8,2.6,9c0,3.2-0.9,6.3-2.6,9      C85.4,82.2,85,82.4,84.6,82.4z"/></g><g><path stroke="#fff" stroke-width="3" stroke-linecap="round" d="M71.8,89.9c-0.2,0-0.3,0-0.4,0c-1.2,0-16,0.2-28.3-16.3c-0.4-0.5-0.3-1.2,0.2-1.6      c0.5-0.4,1.2-0.3,1.6,0.2c11.8,15.9,26.2,15.4,26.4,15.4c0,0,0.1,0,0.1,0c0.1,0,14.6,0.5,26.4-15.4c0.4-0.5,1.1-0.6,1.6-0.2      c0.5,0.4,0.6,1.1,0.2,1.6C88.3,89.1,74.5,89.9,71.8,89.9z"/></g><g><path stroke="#fff" stroke-width="3" stroke-linecap="round" d="M98.8,74c-0.4,0-0.7-0.2-0.9-0.5C86.2,57.7,71.7,58.1,71.5,58.1c0,0-0.1,0-0.1,0      c-0.1,0-14.6-0.5-26.4,15.4c-0.4,0.5-1.1,0.6-1.6,0.2c-0.5-0.4-0.6-1.1-0.2-1.6c12.2-16.6,27.1-16.4,28.3-16.3      c1.2,0,16-0.2,28.3,16.3c0.4,0.5,0.3,1.2-0.2,1.6C99.3,73.9,99.1,74,98.8,74z"/></g></g><g><path stroke="#fff" stroke-width="3" stroke-linecap="round" d="M96.2,98.4c-0.3,0-0.6-0.1-0.8-0.3l-8.5-8.4c-0.5-0.4-0.5-1.2,0-1.6c0.4-0.5,1.2-0.5,1.6,0l8.5,8.4     c0.5,0.4,0.5,1.2,0,1.6C96.8,98.3,96.5,98.4,96.2,98.4z"/></g><g><path stroke="#fff" stroke-width="3" stroke-linecap="round" d="M55.2,58c-0.3,0-0.6-0.1-0.8-0.3l-8.5-8.3c-0.5-0.4-0.5-1.2,0-1.6c0.4-0.5,1.2-0.5,1.6,0L56,56     c0.5,0.4,0.5,1.2,0,1.6C55.8,57.8,55.5,58,55.2,58z"/></g></g><g><path stroke="#fff" stroke-width="3" stroke-linecap="round" d="M37.9,70.5H16.3c-0.6,0-1.2-0.5-1.2-1.2s0.5-1.2,1.2-1.2h21.6c0.6,0,1.2,0.5,1.2,1.2S38.5,70.5,37.9,70.5    z"/></g><g><path stroke="#fff" stroke-width="3" stroke-linecap="round" d="M46.8,88H16.3c-0.6,0-1.2-0.5-1.2-1.2c0-0.6,0.5-1.2,1.2-1.2h30.5c0.6,0,1.2,0.5,1.2,1.2    C47.9,87.4,47.4,88,46.8,88z"/></g><g><path d="M34.5,79.6H1.2c-0.6,0-1.2-0.5-1.2-1.2c0-0.6,0.5-1.2,1.2-1.2h33.3c0.6,0,1.2,0.5,1.2,1.2    C35.6,79.1,35.1,79.6,34.5,79.6z" stroke="#fff" stroke-width="3" stroke-linecap="round"/></g></g></svg>